<!--?xml version="1.0" encoding="utf-8"?-->
<!-- Generator: Adobe Illustrator 22.1.0, SVG Export Plug-In . SVG Version: 6.00 Build 0)  -->
<svg version="1.1" id="_x34_" xmlns="http://www.w3.org/2000/svg" xmlns:xlink="http://www.w3.org/1999/xlink" x="0px" y="0px" viewBox="0 0 800 617.602" style="width: 1326px;" xml:space="preserve">
<style type="text/css">
	.st0{fill:#51C0E3;}
	.st1{fill:#FFFFFF;}
</style>
<g>
	<path class="st0" d="M795.829,146.211c-70.5,84.811-209.869,125.453-312.964,140.565c26.313-26.734,42.981-58.157,52.097-71.174
		c14.214-20.285-12.162-32.457-12.162-32.457s6.069-8.122,18.254-22.305c12.162-14.216,2.03-32.457-10.131-26.375
		c6.092-4.052,12.161-12.175,26.355-40.562c14.193-28.396-18.255-24.344-18.255-24.344c28.408-50.713-6.091-83.158-10.153-60.855
		c-4.038,22.317-89.239,121.699-117.624,131.842c-28.408,10.151-32.469,46.648-40.569,79.105
		c-3.554,14.142-14.004,33.294-24.685,50.397c-2.222-7.119-3.998-13.929-4.887-19.715c-4.038-26.366-6.069-56.032-20.242-64.271
		c-14.171-8.248-56.687-88.994-58.718-107.113c-2.009-18.136-19.227,8.23-5.055,49.434c0,0-16.203-3.299-9.118,19.777
		c7.087,23.064,10.132,29.666,13.156,32.952c-6.069-4.949-11.125,9.889-5.055,21.418c6.071,11.538,9.116,18.124,9.116,18.124
		s-13.177,9.901-6.069,26.387c2.178,5.057,5.224,13.559,9.222,23.417c-27.646-11.338-48.396-24.525-77.607-34.901
		c-56.834-20.189-103.728,20.698-124.562,28.966c-11.909,4.74-51.357-2.653-54.402-2.929c-0.847-0.084-3.153,2.424-1.885,4.199
		c0.466,0.645,55.016,32.128,55.016,32.974c0,0.712-60.833,5.311-62.841,8.834c-0.425,0.718,1.396,3.446,2.622,3.554
		c18.296,1.775,46.429,4.716,89.175,49.452c40,41.882,140.871,151.353,304.038,131.405c18.656-2.274,35.366-6.123,50.575-11.072
		l96.134,51.493c-4.44,12.745-6.028,24.866-6.007,35.555c0.021,25.859,9.033,43.458,9.328,44.082
		c1.289,2.529,3.849,3.987,6.515,3.987c1.12,0,2.243-0.263,3.321-0.825c3.595-1.829,4.991-6.228,3.172-9.814
		c0-0.009-0.381-0.708-1.099-2.442c-2.158-5.185-6.642-18.202-6.642-34.988c0-1.055,0.042-2.166,0.084-3.257
		c6.431,26.504,19.038,43.099,19.354,43.586c1.439,1.912,3.618,2.895,5.817,2.895c1.545,0,3.089-0.475,4.421-1.479
		c3.193-2.421,3.849-6.99,1.396-10.217c0-0.009-1.079-1.438-2.962-4.494c-3.892-6.398-10.597-19.195-14.383-36.01
		c12.311,17.028,28.196,25.571,28.47,25.867c1.121,0.625,2.349,0.921,3.553,0.921c2.56,0,5.034-1.342,6.388-3.754
		c1.776-3.194,0.868-7.139-1.946-9.305c1.502-0.066,3.047-0.541,4.315-1.578c3.152-2.537,3.618-7.139,1.1-10.28
		c0,0-0.908-1.067-2.495-3.553c-3.745-5.774-10.492-18.157-13.368-34.827c11.74,24.696,27.497,38.434,27.92,38.846
		c1.374,1.207,3.088,1.796,4.78,1.796c2.03,0,4.061-0.846,5.5-2.505c2.665-3.024,2.349-7.656-0.677-10.301
		c-0.021,0-1.608-1.354-4.401-4.399c-5.224-5.648-14.023-16.553-20.875-31.707c15.525,14.138,32.826,19.269,33.144,19.503
		c0.719,0.23,1.46,0.338,2.178,0.338c3.11,0,5.986-1.999,6.96-5.14c1.204-3.849-0.933-7.943-4.781-9.139
		c-0.021,0-2.179-0.666-5.924-2.349c-11.399-5.044-33.927-18.474-39.49-43.221c0.21-0.613,0.402-1.217,0.635-1.82
		c1.396-3.774-0.529-7.985-4.294-9.38c-3.786-1.408-7.974,0.508-9.391,4.294c-1.248,3.353-2.307,6.661-3.216,9.918l-77.753-22.843
		c70.329-47.593,87.758-121.887,108.931-132.347c29.148-14.404,161.855-54.571,176.766-87.21
		C803.887,202.201,795.829,146.211,795.829,146.211z M577.88,492.796c-0.635,4.79-0.91,9.434-0.91,13.899
		c0.064,31.071,13.263,53.11,18.423,60.587c-10.407-7.952-27.625-25.097-27.983-49.031c0.338-0.558,0.612-1.108,0.993-1.68
		c2.137-3.415,1.121-7.922-2.305-10.079c-3.384-2.146-7.912-1.109-10.047,2.295c-1.925,3.036-3.596,6.06-5.161,9.076l-82.746-44.324
		c5.837-2.519,11.443-5.194,16.752-8.039L577.88,492.796z" style="fill: rgb(150, 209, 255);"></path>
	<path class="st1" d="M135.868,267.315c15.653,1.748,15.316,15.59,13.221,26.358c-1.459,7.582-6.832,20.444-18.53,18.749
		c-11.697-1.7-15.166-17.84-14.15-25.951C117.382,278.357,125.483,266.165,135.868,267.315z" style="fill: rgb(202, 255, 132);"></path>
</g>
</svg>
