<!--?xml version="1.0" encoding="utf-8"?-->
<!-- Generator: Adobe Illustrator 22.1.0, SVG Export Plug-In . SVG Version: 6.00 Build 0)  -->
<svg version="1.1" id="_x32_" xmlns="http://www.w3.org/2000/svg" xmlns:xlink="http://www.w3.org/1999/xlink" x="0px" y="0px" viewBox="0 0 800 547.469" style="enable-background:new 0 0 800 547.469;" xml:space="preserve">
<style type="text/css">
	.st0{fill:#B3B3B3;}
</style>
<g>
	<path class="st0" d="M704.158,182.873c-11.177-64.922-67.72-114.339-135.847-114.339c-11.698,0-23.036,1.473-33.897,4.218
		C505.258,29.684,455.941,1.369,400.022,1.369c-55.947,0-105.269,28.315-134.425,71.382c-10.857-2.744-22.214-4.218-33.912-4.218
		c-68.116,0-124.65,49.418-135.828,114.339C41.312,201.252,2,252.793,2,313.527c0,67.135,47.99,123.013,111.525,135.312
		c24.112,40.032,68.022,66.815,118.16,66.815c20.742,0,40.413-4.618,58.05-12.82c28.96,26.841,67.686,43.267,110.287,43.267
		c42.562,0,81.292-16.426,110.228-43.267c17.668,8.203,37.332,12.82,58.06,12.82c50.159,0,94.043-26.783,118.18-66.815
		C750.015,436.54,798,380.661,798,313.527C798,252.793,758.694,201.252,704.158,182.873z" style="fill: rgb(195, 217, 255);"></path>
</g>
</svg>
