<!--?xml version="1.0" encoding="utf-8"?-->
<!-- Generator: Adobe Illustrator 22.1.0, SVG Export Plug-In . SVG Version: 6.00 Build 0)  -->
<svg version="1.1" id="_x31__1_" xmlns="http://www.w3.org/2000/svg" xmlns:xlink="http://www.w3.org/1999/xlink" x="0px" y="0px" viewBox="0 0 800 513.731" style="enable-background:new 0 0 800 513.731;" xml:space="preserve">
<style type="text/css">
	.st0{fill:#B3B3B3;}
</style>
<g>
	<path class="st0" d="M798,262.667c0-53.345-30.42-99.536-74.767-122.356C707.731,76.344,650.227,28.775,581.507,28.775
		c-19.39,0-37.832,3.878-54.761,10.727C495.231,15.765,454.063,1.284,408.851,1.284c-47.725,0-90.989,16.128-123.066,42.242
		c-19.255-9.362-40.782-14.752-63.622-14.752c-67.981,0-124.931,46.558-141.184,109.502C34.347,160.336,2,207.645,2,262.667
		c0,56.69,34.266,105.342,83.222,126.473c20.464,55.857,73.964,95.805,136.94,95.805c22.841,0,44.368-5.379,63.622-14.761
		c32.078,26.156,75.341,42.262,123.066,42.262c45.212,0,86.38-14.48,117.894-38.218c16.93,6.871,35.372,10.717,54.761,10.717
		c63.779,0,117.864-40.979,137.754-97.983C765.756,364.872,798,317.606,798,262.667z" style="fill: rgb(195, 231, 255);"></path>
</g>
</svg>
