<!--?xml version="1.0" encoding="utf-8"?-->
<!-- Generator: Adobe Illustrator 22.1.0, SVG Export Plug-In . SVG Version: 6.00 Build 0)  -->
<svg version="1.1" id="_x34_" xmlns="http://www.w3.org/2000/svg" xmlns:xlink="http://www.w3.org/1999/xlink" x="0px" y="0px" viewBox="0 0 800 480.959" style="width: 268px;" xml:space="preserve">
<style type="text/css">
	.st0{fill:#B3B3B3;}
</style>
<g>
	<path class="st0" d="M667.695,219.151c-10.041,0-19.786,1.254-29.209,3.413c1.971-10.865,3.154-21.994,3.154-33.413
		c0-103.788-84.142-187.948-187.942-187.948c-78.141,0-145.129,47.732-173.469,115.598c-16.418-9.212-35.371-14.528-55.533-14.528
		c-62.806,0-113.726,50.933-113.726,113.735c0,1.67,0.179,3.318,0.251,5.002C49.319,231.108,2,284.689,2,349.451
		c0,71.978,58.337,130.306,130.314,130.306h535.382c71.969,0,130.305-58.328,130.305-130.306
		C798,277.482,739.664,219.151,667.695,219.151z" style="fill: rgb(190, 229, 255);"></path>
</g>
</svg>
