<!--?xml version="1.0" encoding="utf-8"?-->
<!-- Generator: Adobe Illustrator 22.1.0, SVG Export Plug-In . SVG Version: 6.00 Build 0)  -->
<svg version="1.1" id="_x36_" xmlns="http://www.w3.org/2000/svg" xmlns:xlink="http://www.w3.org/1999/xlink" x="0px" y="0px" viewBox="0 0 800 550.438" style="width: 228px;" xml:space="preserve">
<style type="text/css">
	.st0{fill:#B3B3B3;}
</style>
<g>
	<path class="st0" d="M736.053,277.499c0.456-4.671,0.719-9.382,0.719-14.165c0-78.89-63.977-142.881-142.881-142.881
		c-11.308,0-22.279,1.48-32.835,3.957c-8.154-69.25-66.975-123.032-138.42-123.032c-77.034,0-139.474,62.477-139.474,139.498
		c0,1.231,0.169,2.401,0.184,3.628c-10.299-4.474-21.64-7.022-33.606-7.022c-46.657,0-84.45,37.77-84.45,84.436
		c0,1.871,0.436,3.629,0.545,5.424c-34.023,10.909-59.315,40.448-63.996,76.813c-6.88-2.003-14.049-3.408-21.578-3.408
		C37.045,300.746,2,335.77,2,378.982c0,43.208,35.045,78.232,78.261,78.232c9.781,0,19.073-1.983,27.698-5.292
		c11.59,17.508,31.376,29.098,53.946,29.098c5.076,0,9.974-0.714,14.73-1.843c17.094,27.566,47.372,46.084,82.185,46.084
		c25.432,0,48.411-10.012,65.712-26.043c21.948,30.137,57.42,49.844,97.6,49.844c39.09,0,73.782-18.701,95.843-47.522
		c9.448,5.194,20.159,8.414,31.688,8.414c19.557,0,36.938-8.611,49.083-22.081c20.679,14.908,45.962,23.759,73.404,23.759
		c69.495,0,125.849-56.316,125.849-125.844C798,339.628,773.09,299.392,736.053,277.499z"></path>
</g>
</svg>
