<!--?xml version="1.0" encoding="utf-8"?-->
<!-- Generator: Adobe Illustrator 22.1.0, SVG Export Plug-In . SVG Version: 6.00 Build 0)  -->
<svg version="1.1" id="_x30_" xmlns="http://www.w3.org/2000/svg" xmlns:xlink="http://www.w3.org/1999/xlink" x="0px" y="0px" viewBox="0 0 800 512.319" style="enable-background:new 0 0 800 512.319;" xml:space="preserve">
<style type="text/css">
	.st0{fill:#B3B3B3;}
</style>
<g>
	<path class="st0" d="M651.581,185.77c-11.2,0-22.063,1.372-32.537,3.753c0.487-5.267,0.806-10.588,0.806-15.988
		c0-95.131-77.122-172.254-172.254-172.254c-60.655,0-113.882,31.429-144.577,78.813c-16.573-8.172-35.148-12.882-54.874-12.882
		c-67.49,0-122.302,53.749-124.268,120.771C54.722,199.687,2,259.705,2,332.189c0,80.858,65.56,146.418,146.42,146.418
		c22.142,0,43.054-5.055,61.876-13.865c22.816,28.216,57.671,46.295,96.778,46.295c38.211,0,72.359-17.255,95.193-44.365
		c22.833,27.11,56.982,44.365,95.193,44.365c38.38,0,72.678-17.397,95.511-44.719c17.954,7.862,37.76,12.288,58.61,12.288
		c80.858,0,146.419-65.56,146.419-146.418C798,251.32,732.439,185.77,651.581,185.77z"></path>
</g>
</svg>
