<!--?xml version="1.0" encoding="utf-8"?-->
<!-- Generator: Adobe Illustrator 22.1.0, SVG Export Plug-In . SVG Version: 6.00 Build 0)  -->
<svg version="1.1" id="_x35_" xmlns="http://www.w3.org/2000/svg" xmlns:xlink="http://www.w3.org/1999/xlink" x="0px" y="0px" viewBox="0 0 800 501.153" style="width: 350px;" xml:space="preserve">
<style type="text/css">
	.st0{fill:#B3B3B3;}
</style>
<g>
	<path class="st0" d="M718.995,172.902c-19.039-69.907-82.94-121.32-158.882-121.32c-12.078,0-23.858,1.333-35.197,3.8
		C489.313,21.851,441.353,1.253,388.557,1.253c-59.713,0-113.238,26.33-149.714,67.99c-11.51-5.404-24.299-8.515-37.827-8.515
		c-43.862,0-80.239,31.658-87.741,73.348C51.553,135.725,2,186.169,2,248.288c0,54.376,37.998,99.818,88.867,111.406
		c9.313,48.594,51.977,85.305,103.278,85.305c12.32,0,24.083-2.207,35.07-6.111c26.344,36.891,69.395,61.014,118.165,61.014
		c34.675,0,66.477-12.176,91.461-32.459c13.86,8.92,30.342,14.149,48.076,14.149c24.444,0,46.563-9.835,62.684-25.753
		c11.718,4.781,24.525,7.47,37.963,7.47c52.651,0,95.801-40.471,100.206-91.978c3.161,0.306,6.34,0.481,9.574,0.481
		C752.932,371.81,798,326.743,798,271.173C798,223.024,764.163,182.823,718.995,172.902z" style="fill: rgb(205, 227, 255);"></path>
</g>
</svg>
