<!--?xml version="1.0" encoding="utf-8"?-->
<!-- Generator: Adobe Illustrator 22.1.0, SVG Export Plug-In . SVG Version: 6.00 Build 0)  -->
<svg version="1.1" id="_x37_" xmlns="http://www.w3.org/2000/svg" xmlns:xlink="http://www.w3.org/1999/xlink" x="0px" y="0px" viewBox="0 0 800 577.292" style="enable-background:new 0 0 800 577.292;" xml:space="preserve">
<style type="text/css">
	.st0{fill:#B3B3B3;}
</style>
<g>
	<path class="st0" d="M731.334,264.774c7.32-15.151,11.415-32.144,11.415-50.094c0-63.766-51.688-115.448-115.447-115.448
		c-7.151,0-14.138,0.682-20.929,1.938c-24.87-58.623-82.935-99.727-150.625-99.727c-54.554,0-102.849,26.735-132.563,67.799
		c-17.638-6.525-36.716-10.083-56.639-10.083c-87.046,0-158.186,68.035-163.226,153.824C44.646,230.99,2,285.6,2,350.154
		c0,78.568,63.108,142.332,141.393,143.47c23.995,45.757,71.91,76.994,127.16,76.994c39.858,0,75.897-16.239,101.9-42.457
		c13.553,26.203,45.605,42.841,78.22,46.804c51.032,6.217,86.129-21.257,112.418-54.349c22.215,14.085,48.557,21.093,76.783,22.282
		C734.477,546.901,798,474.777,798,382.242C798,337.796,782.1,292.956,731.334,264.774z" style="fill: rgb(195, 231, 246);"></path>
</g>
</svg>
